<?xml version="1.0" encoding="utf-8"?>
<!-- Generator: Adobe Illustrator 25.1.0, SVG Export Plug-In . SVG Version: 6.00 Build 0)  -->
<svg version="1.1" id="Livello_1" xmlns="http://www.w3.org/2000/svg" xmlns:xlink="http://www.w3.org/1999/xlink" x="0px" y="0px"
	 viewBox="0 0 40 40" style="enable-background:new 0 0 40 40;" xml:space="preserve">
<style type="text/css">
	.st0{fill:#F79300;}
	.st1{fill:#FFFFFF;}
</style>
<g>
	<path class="st0" d="M1.7,11.6v16.8c0,1.1,0.6,2.2,1.6,2.7l15.2,8.5c0.9,0.5,2.1,0.5,3,0l15.2-8.5c1-0.5,1.6-1.6,1.6-2.7V11.6
		c0-1.1-0.6-2.2-1.6-2.7L21.5,0.4c-0.9-0.5-2.1-0.5-3,0L3.3,8.9C2.3,9.4,1.7,10.5,1.7,11.6z"/>
	<g>
		<path class="st1" d="M19.9,21.6c-0.6,0-1.2-0.2-1.7-0.6l-8.7-7.4c-0.4-0.3-0.4-0.9-0.1-1.3c0.3-0.4,0.9-0.4,1.3-0.1l8.7,7.3
			c0.3,0.2,0.8,0.2,1.2,0l8.8-7.3c0.4-0.3,1-0.3,1.3,0.1c0.3,0.4,0.3,1-0.1,1.3L21.7,21C21.2,21.4,20.6,21.6,19.9,21.6z"/>
		<path class="st1" d="M28.5,29H11.5c-1.6,0-2.9-1.3-2.9-2.9V13.9c0-1.6,1.3-2.9,2.9-2.9h16.9c1.6,0,2.9,1.3,2.9,2.9v12.2
			C31.3,27.7,30,29,28.5,29L28.5,29z M11.5,12.9c-0.5,0-1,0.4-1,1v12.2c0,0.5,0.4,1,1,1h16.9c0.5,0,1-0.4,1-1V13.9c0-0.5-0.4-1-1-1
			L11.5,12.9L11.5,12.9z"/>
	</g>
</g>
</svg>
