<?xml version="1.0" encoding="utf-8"?>
<!-- Generator: Adobe Illustrator 25.1.0, SVG Export Plug-In . SVG Version: 6.00 Build 0)  -->
<svg version="1.1" id="Livello_1" xmlns="http://www.w3.org/2000/svg" xmlns:xlink="http://www.w3.org/1999/xlink" x="0px" y="0px"
	 viewBox="0 0 40 40" style="enable-background:new 0 0 40 40;" xml:space="preserve">
<style type="text/css">
	.st0{fill:#3B5A9D;}
	.st1{fill:#FFFFFF;}
</style>
<g>
	<path class="st0" d="M1.7,11.6v16.8c0,1.1,0.6,2.2,1.6,2.7l15.2,8.5c0.9,0.5,2.1,0.5,3,0l15.2-8.5c1-0.5,1.6-1.6,1.6-2.7V11.6
		c0-1.1-0.6-2.2-1.6-2.7L21.5,0.4c-0.9-0.5-2.1-0.5-3,0L3.3,8.9C2.3,9.4,1.7,10.5,1.7,11.6z"/>
	<path class="st1" d="M18.1,29v-7.8h-2.8v-3.2h2.8v-2.5c0-2.8,1.7-4.4,4.2-4.4c1.2,0,2.5,0.2,2.5,0.2V14h-1.4
		c-1.4,0-1.8,0.9-1.8,1.7v2.1h3.1l-0.5,3.2h-2.6V29"/>
</g>
</svg>
