<?xml version="1.0" encoding="utf-8"?>
<!-- Generator: Adobe Illustrator 25.1.0, SVG Export Plug-In . SVG Version: 6.00 Build 0)  -->
<svg version="1.1" id="Livello_1" xmlns="http://www.w3.org/2000/svg" xmlns:xlink="http://www.w3.org/1999/xlink" x="0px" y="0px"
	 viewBox="0 0 40 40" style="enable-background:new 0 0 40 40;" xml:space="preserve">
<style type="text/css">
	.st0{fill:#006699;}
	.st1{fill:#FFFFFF;}
</style>
<g>
	<path class="st0" d="M1.7,11.6v16.8c0,1.1,0.6,2.2,1.6,2.7l15.2,8.5c0.9,0.5,2.1,0.5,3,0l15.2-8.5c1-0.5,1.6-1.6,1.6-2.7V11.6
		c0-1.1-0.6-2.2-1.6-2.7L21.5,0.4c-0.9-0.5-2.1-0.5-3,0L3.3,8.9C2.3,9.4,1.7,10.5,1.7,11.6z"/>
	<g>
		<rect x="10.7" y="16.8" class="st1" width="3.8" height="12.2"/>
		<path class="st1" d="M12.6,11c-1.4,0-2.3,0.9-2.3,2.1c0,1.2,0.9,2.1,2.3,2.1h0c1.4,0,2.3-0.9,2.3-2.1C14.8,12,14,11,12.6,11z"/>
		<path class="st1" d="M24.9,16.7c-2.2,0-3.5,1.2-3.8,2v-1.9h-4.3c0.1,1,0,12.2,0,12.2h4.3v-6.6c0-0.4,0-0.7,0.1-1
			c0.3-0.7,0.9-1.5,2.1-1.5c1.5,0,2.2,1.1,2.2,2.8V29h4.3v-6.8C29.8,18.4,27.6,16.7,24.9,16.7z"/>
	</g>
</g>
</svg>
