<?xml version="1.0" encoding="utf-8"?>
<!-- Generator: Adobe Illustrator 25.1.0, SVG Export Plug-In . SVG Version: 6.00 Build 0)  -->
<svg version="1.1" id="Livello_1" xmlns="http://www.w3.org/2000/svg" xmlns:xlink="http://www.w3.org/1999/xlink" x="0px" y="0px"
	 viewBox="0 0 40 40" style="enable-background:new 0 0 40 40;" xml:space="preserve">
<style type="text/css">
	.st0{clip-path:url(#SVGID_2_);}
	.st1{fill:url(#SVGID_3_);}
	.st2{fill:url(#SVGID_4_);}
	.st3{fill:#FFFFFF;}
</style>
<g>
	<g>
		<defs>
			<path id="SVGID_1_" d="M1.7,11.6v16.8c0,1.1,0.6,2.2,1.6,2.7l15.2,8.5c0.9,0.5,2.1,0.5,3,0l15.2-8.5c1-0.5,1.6-1.6,1.6-2.7V11.6
				c0-1.1-0.6-2.2-1.6-2.7L21.5,0.4c-0.9-0.5-2.1-0.5-3,0L3.3,8.9C2.4,9.5,1.7,10.5,1.7,11.6z"/>
		</defs>
		<clipPath id="SVGID_2_">
			<use xlink:href="#SVGID_1_"  style="overflow:visible;"/>
		</clipPath>
		<g class="st0">
			
				<radialGradient id="SVGID_3_" cx="-175.8328" cy="-242.6122" r="18.2138" gradientTransform="matrix(0 -2.3603 -1.8963 0 -449.0424 -370.5299)" gradientUnits="userSpaceOnUse">
				<stop  offset="0" style="stop-color:#FFDD55"/>
				<stop  offset="0.1" style="stop-color:#FFDD55"/>
				<stop  offset="0.5" style="stop-color:#FF543E"/>
				<stop  offset="1" style="stop-color:#C837AB"/>
			</radialGradient>
			<path class="st1" d="M19.8-2.2c-7.8,0-10.1,0-10.6,0.1C7.7-2,6.7-1.7,5.6-1.1c-0.8,0.5-1.5,1-2.2,1.8C2.2,2.1,1.5,3.9,1.3,6
				c-0.1,1-0.2,1.2-0.2,6.4c0,1.7,0,4,0,7c0,9,0,11.7,0,12.2c0.1,1.8,0.4,2.9,0.9,4.2c1,2.4,2.9,4.2,5.1,4.8
				c0.8,0.2,1.6,0.4,2.7,0.4c0.5,0,5.2,0,9.9,0s9.5,0,9.9,0c1.3-0.1,2-0.2,2.8-0.4c2.2-0.7,4.1-2.4,5.1-4.8c0.5-1.2,0.8-2.4,0.9-4.1
				c0-0.4,0-6.3,0-12.3c0-6,0-11.9,0-12.3c-0.1-1.7-0.4-2.9-0.9-4.2c-0.4-1-0.9-1.8-1.6-2.5c-1.2-1.4-2.8-2.2-4.6-2.5
				c-0.9-0.1-1-0.2-5.5-0.2H19.8z"/>
			<g>
				
					<radialGradient id="SVGID_4_" cx="457.2667" cy="-20.8361" r="18.2138" gradientTransform="matrix(0.1789 1.0345 3.6837 -0.8541 -10.2432 -489.9617)" gradientUnits="userSpaceOnUse">
					<stop  offset="0" style="stop-color:#3771C8"/>
					<stop  offset="0.128" style="stop-color:#3771C8"/>
					<stop  offset="1" style="stop-color:#6600FF;stop-opacity:0"/>
				</radialGradient>
				<path class="st2" d="M19.8-2.2c-7.8,0-10.1,0-10.6,0.1C7.7-2,6.7-1.7,5.6-1.1c-0.8,0.5-1.5,1-2.2,1.8C2.2,2.1,1.5,3.9,1.3,6
					c-0.1,1-0.2,1.2-0.2,6.4c0,1.7,0,4,0,7c0,9,0,11.7,0,12.2c0.1,1.8,0.4,2.9,0.9,4.2c1,2.4,2.9,4.2,5.1,4.8
					c0.8,0.2,1.6,0.4,2.7,0.4c0.5,0,5.2,0,9.9,0s9.5,0,9.9,0c1.3-0.1,2-0.2,2.8-0.4c2.2-0.7,4.1-2.4,5.1-4.8
					c0.5-1.2,0.8-2.4,0.9-4.1c0-0.4,0-6.3,0-12.3c0-6,0-11.9,0-12.3c-0.1-1.7-0.4-2.9-0.9-4.2c-0.4-1-0.9-1.8-1.6-2.5
					c-1.2-1.4-2.8-2.2-4.6-2.5c-0.9-0.1-1-0.2-5.5-0.2H19.8z"/>
			</g>
		</g>
	</g>
	<path class="st3" d="M20,11c-2.4,0-2.8,0-3.7,0.1c-1,0-1.6,0.2-2.2,0.4c-0.6,0.2-1.1,0.5-1.6,1c-0.5,0.5-0.8,1-1,1.6
		c-0.2,0.6-0.4,1.2-0.4,2.2c0,1-0.1,1.3-0.1,3.7s0,2.8,0.1,3.7c0,1,0.2,1.6,0.4,2.2c0.2,0.6,0.5,1.1,1,1.6c0.5,0.5,1,0.8,1.6,1
		c0.6,0.2,1.2,0.4,2.2,0.4c1,0,1.3,0.1,3.7,0.1c2.4,0,2.8,0,3.7-0.1c1,0,1.6-0.2,2.2-0.4c0.6-0.2,1.1-0.5,1.6-1c0.5-0.5,0.8-1,1-1.6
		c0.2-0.6,0.4-1.2,0.4-2.2c0-1,0.1-1.3,0.1-3.7s0-2.8-0.1-3.7c0-1-0.2-1.6-0.4-2.2c-0.2-0.6-0.5-1.1-1-1.6c-0.5-0.5-1-0.8-1.6-1
		c-0.6-0.2-1.2-0.4-2.2-0.4C22.7,11,22.4,11,20,11L20,11z M19.2,12.6c0.2,0,0.5,0,0.8,0c2.4,0,2.7,0,3.6,0.1c0.9,0,1.4,0.2,1.7,0.3
		c0.4,0.2,0.7,0.4,1,0.7c0.3,0.3,0.5,0.6,0.7,1c0.1,0.3,0.3,0.8,0.3,1.7c0,0.9,0.1,1.2,0.1,3.6s0,2.7-0.1,3.6c0,0.9-0.2,1.4-0.3,1.7
		c-0.2,0.4-0.4,0.7-0.7,1c-0.3,0.3-0.6,0.5-1,0.7c-0.3,0.1-0.8,0.3-1.7,0.3c-0.9,0-1.2,0.1-3.6,0.1c-2.4,0-2.7,0-3.6-0.1
		c-0.9,0-1.4-0.2-1.7-0.3c-0.4-0.2-0.7-0.4-1-0.7c-0.3-0.3-0.5-0.6-0.7-1c-0.1-0.3-0.3-0.8-0.3-1.7c0-0.9-0.1-1.2-0.1-3.6
		s0-2.7,0.1-3.6c0-0.9,0.2-1.4,0.3-1.7c0.2-0.4,0.4-0.7,0.7-1c0.3-0.3,0.6-0.5,1-0.7c0.3-0.1,0.8-0.3,1.7-0.3
		C17.2,12.6,17.5,12.6,19.2,12.6L19.2,12.6z M24.8,14.1c-0.6,0-1.1,0.5-1.1,1.1c0,0.6,0.5,1.1,1.1,1.1c0.6,0,1.1-0.5,1.1-1.1
		C25.9,14.6,25.4,14.1,24.8,14.1L24.8,14.1z M20,15.4c-2.6,0-4.6,2.1-4.6,4.6s2.1,4.6,4.6,4.6c2.6,0,4.6-2.1,4.6-4.6
		S22.6,15.4,20,15.4L20,15.4z M20,17c1.7,0,3,1.3,3,3c0,1.7-1.3,3-3,3c-1.7,0-3-1.3-3-3C17,18.3,18.3,17,20,17z"/>
</g>
</svg>
