<?xml version="1.0" encoding="utf-8"?>
<!-- Generator: Adobe Illustrator 25.1.0, SVG Export Plug-In . SVG Version: 6.00 Build 0)  -->
<svg version="1.1" id="Livello_1" xmlns="http://www.w3.org/2000/svg" xmlns:xlink="http://www.w3.org/1999/xlink" x="0px" y="0px"
	 viewBox="0 0 40 40" style="enable-background:new 0 0 40 40;" xml:space="preserve">
<style type="text/css">
	.st0{fill:#48D172;}
	.st1{fill:#FFFFFF;}
</style>
<g>
	<path class="st0" d="M1.7,11.6v16.8c0,1.1,0.6,2.2,1.6,2.7l15.2,8.5c0.9,0.5,2.1,0.5,3,0l15.2-8.5c1-0.5,1.6-1.6,1.6-2.7V11.6
		c0-1.1-0.6-2.2-1.6-2.7L21.5,0.4c-0.9-0.5-2.1-0.5-3,0L3.3,8.9C2.3,9.4,1.7,10.5,1.7,11.6z"/>
	<g>
		<path class="st1" d="M24,21.8c-0.2-0.1-1.3-0.6-1.5-0.7c-0.2-0.1-0.3-0.1-0.5,0.1c-0.2,0.2-0.6,0.7-0.7,0.9
			c-0.1,0.2-0.3,0.2-0.5,0c-0.7-0.3-1.3-0.6-1.8-1.1c-0.5-0.4-0.9-1-1.2-1.5c-0.1-0.2,0-0.3,0.1-0.5s0.2-0.3,0.3-0.4
			c0.1-0.1,0.2-0.2,0.2-0.4c0.1-0.1,0.1-0.3,0-0.4c0-0.1-0.5-1.2-0.7-1.6c-0.2-0.4-0.4-0.4-0.5-0.4h-0.5c-0.2,0-0.4,0.1-0.6,0.3
			c-0.5,0.5-0.8,1.2-0.8,1.9c0.1,0.8,0.4,1.7,0.9,2.3c1,1.4,2.3,2.6,3.8,3.3c0.5,0.2,0.9,0.4,1.3,0.5c0.5,0.1,0.9,0.2,1.4,0.1
			c0.6-0.1,1.2-0.5,1.5-1.1c0.1-0.3,0.2-0.7,0.1-1.1C24.4,21.9,24.3,21.9,24,21.8z"/>
		<path class="st1" d="M26.3,13.6C24.6,12,22.3,11,20,11c-4.9,0-8.9,4-8.8,8.9c0,1.5,0.4,3,1.2,4.4L11.1,29l4.7-1.2
			c1.3,0.7,2.8,1.1,4.2,1.1H20c4.9,0,8.9-3.9,8.9-8.8C28.9,17.6,28,15.3,26.3,13.6L26.3,13.6z M20,27.3c-1.3,0-2.6-0.4-3.8-1
			l-0.3-0.2l-2.8,0.7l0.7-2.7l-0.2-0.3c-2.1-3.5-1.1-8,2.4-10.2c2.9-1.8,6.7-1.4,9.1,1c1.4,1.4,2.2,3.3,2.2,5.2
			C27.3,24,24,27.3,20,27.3z"/>
	</g>
</g>
</svg>
