<?xml version="1.0" encoding="utf-8"?>
<!-- Generator: Adobe Illustrator 25.1.0, SVG Export Plug-In . SVG Version: 6.00 Build 0)  -->
<svg version="1.1" id="Livello_1" xmlns="http://www.w3.org/2000/svg" xmlns:xlink="http://www.w3.org/1999/xlink" x="0px" y="0px"
	 viewBox="0 0 800 800" style="enable-background:new 0 0 800 800;" xml:space="preserve">
<style type="text/css">
	.st0{fill:#E4A126;}
	.st1{fill:#F0BE25;}
	.st2{fill:#FFFFFF;}
	.st3{fill:#EBEAEA;}
</style>
<g>
	<path class="st0" d="M752.7,0l-64.3,719.9L399.6,800l-288.1-80L47.3,0H752.7L752.7,0z"/>
	<path class="st1" d="M400,738.8l233.4-64.7l54.9-615.2H400V738.8z"/>
	<polygon class="st2" points="585.3,147.2 226.3,147.2 201.3,417.3 201.8,415.6 506.9,415.6 496.9,529.8 399.6,557.8 300.8,529.4 
		294.9,460.2 205.2,460.2 218,598.4 399.6,650 581.2,598.4 606.2,327.3 282.5,327.3 286.6,236.9 511.3,236.9 514.6,288.6 
		605.1,288.6 	"/>
	<g>
		<path class="st3" d="M399.6,147.2H226.3l-25,270.1l0.5-1.7h197.8v-88.3H295l4.1-90.4h100.5V147.2z M294.9,460.2h-89.7L218,598.4
			l181.6,51.4v-92l-98.8-28.5L294.9,460.2z"/>
	</g>
	<g>
		<path class="st3" d="M399.6,147.2H226.3l-25,270.1l0.5-1.7h197.8v-88.3H295l4.1-90.4h100.5V147.2z M294.9,460.2h-89.7L218,598.4
			l181.6,51.4v-92l-98.8-28.5L294.9,460.2z"/>
	</g>
</g>
</svg>
