<?xml version="1.0" encoding="utf-8"?>
<!-- Generator: Adobe Illustrator 15.1.0, SVG Export Plug-In . SVG Version: 6.00 Build 0)  -->
<!DOCTYPE svg PUBLIC "-//W3C//DTD SVG 1.0//EN" "http://www.w3.org/TR/2001/REC-SVG-20010904/DTD/svg10.dtd">
<svg version="1.0" id="Livello_1" xmlns="http://www.w3.org/2000/svg" xmlns:xlink="http://www.w3.org/1999/xlink" x="0px" y="0px"
	 width="200.766px" height="80px" viewBox="0 0 200.766 80" enable-background="new 0 0 200.766 80" xml:space="preserve">
<g id="logo_2013">
	<g>
		<polygon fill="#1A171B" points="100.39,55.565 0,59.89 100.382,59.89 200.766,59.89 		"/>
		<polygon fill="#FFDC00" points="100.382,59.89 0,59.89 100.375,64.218 200.766,59.89 		"/>
	</g>
	<path fill="#FFDC00" d="M137.791,10.367c-4.403-5.387-11.095-8.829-18.589-8.843c-7.495-0.013-14.196,3.405-18.614,8.774
		C96.182,4.914,89.49,1.471,81.989,1.458C68.697,1.433,57.894,12.191,57.87,25.49c-0.024,13.292,10.74,24.093,24.033,24.118
		c7.5,0.014,14.202-3.408,18.627-8.774c4.4,5.382,11.089,8.828,18.582,8.841c7.496,0.013,14.201-3.409,18.623-8.777
		c-3.402-4.159-5.441-9.482-5.431-15.274C132.314,19.829,134.372,14.514,137.791,10.367z"/>
	<path fill="#1A171B" d="M139.679,10.371l-0.739-0.904c-0.551-0.671-1.141-1.312-1.753-1.922c-0.377-0.376-0.776-0.717-1.17-1.068
		c-0.232-0.203-0.458-0.414-0.695-0.608c-0.491-0.404-1.002-0.778-1.521-1.143c-0.153-0.105-0.301-0.215-0.459-0.318
		c-0.586-0.395-1.187-0.759-1.804-1.102c-0.083-0.047-0.169-0.093-0.251-0.138c-3.669-1.987-7.793-3.092-12.083-3.1
		c-7.337-0.014-13.947,3.105-18.617,8.074C95.933,3.157,89.333,0.014,81.992,0c-6.82-0.012-13.237,2.63-18.07,7.443
		c-4.831,4.815-7.498,11.224-7.509,18.044C56.387,39.564,67.821,51.041,81.9,51.067c7.338,0.012,13.951-3.106,18.625-8.072
		c4.648,4.982,11.246,8.126,18.581,8.139h0.004c2.441,0.004,4.824-0.372,7.112-1.031c0.237-0.067,0.482-0.125,0.714-0.203
		c0.517-0.164,1.021-0.355,1.524-0.556c0.339-0.129,0.672-0.26,1.001-0.406c0.431-0.189,0.855-0.395,1.274-0.61
		c0.393-0.195,0.776-0.404,1.156-0.625c0.354-0.203,0.7-0.414,1.049-0.634c0.452-0.293,0.887-0.598,1.321-0.916
		c0.253-0.187,0.51-0.367,0.759-0.567c0.598-0.473,1.171-0.974,1.723-1.501c0.073-0.066,0.148-0.125,0.217-0.192
		c0.774-0.75,1.496-1.549,2.171-2.391l0.493-0.604l0.146-0.192c3.191-4.248,4.945-9.335,4.955-15.047
		C144.736,19.94,142.863,14.629,139.679,10.371z M81.905,48.146C69.435,48.124,59.308,37.96,59.33,25.493
		c0.011-6.043,2.374-11.718,6.652-15.979c4.281-4.265,9.96-6.606,16.005-6.595c6.634,0.012,12.58,2.909,16.714,7.476
		c-3.156,4.243-5.053,9.475-5.064,15.16c-0.01,5.681,1.866,10.922,5.007,15.174C94.495,45.284,88.535,48.159,81.905,48.146z
		 M119.111,48.213c-6.627-0.012-12.57-2.908-16.699-7.478c-0.671-0.744-1.31-1.523-1.878-2.351
		c-2.515-3.651-3.989-8.067-3.981-12.825c0.009-4.758,1.5-9.167,4.03-12.813c0.569-0.825,1.21-1.603,1.886-2.345
		c4.146-4.552,10.102-7.428,16.73-7.416c6.402,0.012,12.429,2.703,16.703,7.425c-3.26,4.373-5.048,9.728-5.058,15.211
		c-0.011,5.483,1.759,10.842,5.003,15.225C131.552,45.554,125.517,48.225,119.111,48.213z M139.337,40.552l-0.473-0.579
		c-3.298-4.028-5.11-9.125-5.102-14.345c0.01-5.223,1.842-10.313,5.152-14.333l0.468-0.565c3.098,4.183,4.95,9.335,4.939,14.929
		C144.313,31.242,142.446,36.385,139.337,40.552z"/>
	<path fill="#FFDC00" d="M19.009,50.979c4.16-4.633,10.193-7.548,16.91-7.548c6.843,0,12.921,2.947,17.087,7.733l11.806,0.003
		L36.103,0.132L6.967,51.165l11.829,0.021C18.865,51.115,18.938,51.049,19.009,50.979z"/>
	<path fill="#1A171B" d="M64.812,51.167L36.103,0.132L6.967,51.165l11.829,0.021c0.001-0.002,0.003-0.003,0.004-0.005L64.812,51.167
		z M11.937,48.285L36.084,5.991l23.842,42.38l-5.596-0.01c-4.817-4.984-11.454-7.818-18.411-7.818
		c-6.913,0-13.544,2.813-18.353,7.752L11.937,48.285z M19.208,50.768c4.153-4.508,10.098-7.337,16.71-7.337
		c6.609,0,12.549,2.832,16.702,7.337H19.208z"/>
	<path fill="#FFDC00" d="M148.187,50.979c4.16-4.633,10.193-7.548,16.909-7.548c6.844,0,12.922,2.947,17.088,7.733l11.805,0.003
		L165.281,0.132l-29.136,51.033l11.829,0.021C148.043,51.115,148.117,51.049,148.187,50.979z"/>
	<path fill="#1A171B" d="M193.989,51.167L165.281,0.132l-29.136,51.033l11.829,0.021c0.002-0.002,0.003-0.003,0.005-0.005
		L193.989,51.167z M141.115,48.285l24.147-42.294l23.842,42.38l-5.596-0.01c-4.817-4.984-11.454-7.818-18.412-7.818
		c-6.912,0-13.543,2.813-18.352,7.752L141.115,48.285z M148.387,50.768c4.151-4.508,10.098-7.337,16.709-7.337
		c6.609,0,12.55,2.832,16.702,7.337H148.387z"/>
	<g>
		<path fill="#1A171B" d="M11.492,68.644h1.207l4.447,11.339l-1.16-0.001l-1.381-3.526H9.443l-1.366,3.527l-1.159-0.001
			L11.492,68.644z M9.777,75.537l4.462,0.001l-2.191-5.813L9.777,75.537z"/>
		<path fill="#1A171B" d="M31.229,72.315c-0.095-0.437-0.25-0.823-0.468-1.167c-0.217-0.345-0.48-0.633-0.794-0.866
			c-0.313-0.232-0.657-0.41-1.032-0.532c-0.375-0.121-0.77-0.182-1.183-0.183c-0.751,0-1.398,0.136-1.937,0.408
			c-0.54,0.271-0.981,0.633-1.327,1.082c-0.342,0.447-0.598,0.957-0.763,1.525c-0.163,0.571-0.246,1.147-0.246,1.732
			c0,0.595,0.083,1.175,0.245,1.738c0.166,0.565,0.419,1.07,0.765,1.521c0.343,0.448,0.784,0.809,1.326,1.082
			c0.539,0.271,1.185,0.409,1.936,0.408c0.518,0.001,0.994-0.097,1.421-0.286c0.428-0.19,0.796-0.45,1.104-0.778
			c0.307-0.328,0.555-0.712,0.746-1.151c0.191-0.439,0.312-0.914,0.366-1.421h1.081c-0.074,0.699-0.239,1.327-0.494,1.89
			c-0.253,0.563-0.583,1.041-0.983,1.436c-0.404,0.397-0.877,0.701-1.423,0.914c-0.544,0.213-1.15,0.317-1.817,0.316
			c-0.888,0.001-1.669-0.153-2.343-0.464c-0.671-0.309-1.228-0.727-1.675-1.25c-0.444-0.523-0.778-1.129-1-1.813
			s-0.332-1.4-0.333-2.141c0-0.741,0.112-1.457,0.333-2.141c0.224-0.687,0.557-1.291,1.002-1.813c0.443-0.523,1.003-0.94,1.674-1.25
			c0.672-0.312,1.454-0.465,2.342-0.466c0.54,0.001,1.065,0.08,1.58,0.24c0.513,0.159,0.979,0.394,1.398,0.705
			c0.417,0.312,0.769,0.697,1.048,1.153c0.279,0.455,0.457,0.978,0.531,1.57L31.229,72.315z"/>
		<path fill="#1A171B" d="M47.172,72.318c-0.095-0.437-0.25-0.824-0.47-1.17c-0.215-0.343-0.479-0.631-0.792-0.865
			c-0.314-0.231-0.658-0.409-1.032-0.531c-0.376-0.122-0.771-0.184-1.184-0.183c-0.751,0-1.398,0.136-1.938,0.406
			c-0.541,0.274-0.981,0.633-1.327,1.082c-0.343,0.449-0.598,0.959-0.763,1.527c-0.163,0.569-0.247,1.146-0.246,1.731
			c-0.001,0.594,0.083,1.174,0.244,1.739c0.167,0.565,0.419,1.069,0.766,1.519c0.343,0.45,0.783,0.81,1.326,1.082
			c0.538,0.273,1.184,0.41,1.936,0.409c0.52,0,0.993-0.096,1.421-0.286c0.43-0.189,0.796-0.45,1.104-0.778
			c0.307-0.328,0.554-0.712,0.746-1.149c0.191-0.44,0.313-0.914,0.365-1.422h1.08c-0.074,0.698-0.238,1.327-0.492,1.89
			c-0.255,0.561-0.584,1.042-0.984,1.437c-0.404,0.396-0.877,0.699-1.421,0.913c-0.546,0.212-1.151,0.317-1.818,0.317
			c-0.889,0-1.67-0.156-2.343-0.466c-0.672-0.308-1.229-0.727-1.675-1.249c-0.444-0.523-0.779-1.129-0.999-1.813
			c-0.224-0.687-0.333-1.401-0.334-2.143c0-0.742,0.111-1.456,0.334-2.139c0.223-0.687,0.555-1.292,1.002-1.816
			c0.443-0.521,1.002-0.938,1.675-1.248c0.67-0.312,1.452-0.465,2.341-0.465c0.54,0,1.066,0.078,1.58,0.237
			c0.514,0.159,0.981,0.396,1.398,0.707c0.417,0.313,0.768,0.697,1.047,1.151c0.281,0.456,0.458,0.979,0.531,1.573L47.172,72.318z"
			/>
		<path fill="#1A171B" d="M58.146,68.649l1.206,0.001l4.447,11.338l-1.159-0.001l-1.381-3.525l-5.161-0.001l-1.365,3.526h-1.16
			L58.146,68.649z M56.43,75.54l4.462,0.002l-2.191-5.812L56.43,75.54z"/>
		<path fill="#1A171B" d="M79.278,76.02c-0.008,0.582,0.08,1.07,0.272,1.461c0.189,0.391,0.45,0.704,0.784,0.936
			c0.335,0.233,0.729,0.399,1.183,0.502c0.458,0.099,0.943,0.151,1.462,0.151c0.296,0,0.619-0.042,0.969-0.122
			c0.351-0.081,0.675-0.212,0.978-0.388c0.3-0.176,0.552-0.403,0.753-0.685c0.202-0.276,0.301-0.613,0.302-1.009
			c0-0.303-0.071-0.567-0.213-0.79c-0.145-0.222-0.329-0.408-0.556-0.56c-0.228-0.154-0.479-0.277-0.754-0.374
			c-0.274-0.094-0.544-0.174-0.811-0.235l-2.524-0.593c-0.339-0.081-0.662-0.182-0.968-0.305c-0.308-0.12-0.578-0.28-0.812-0.484
			c-0.232-0.202-0.42-0.451-0.562-0.743c-0.145-0.295-0.215-0.654-0.215-1.08c0.001-0.263,0.052-0.572,0.159-0.925
			c0.106-0.355,0.303-0.689,0.596-1.002c0.292-0.313,0.691-0.579,1.199-0.798c0.507-0.218,1.159-0.326,1.952-0.327
			c0.562,0.002,1.096,0.075,1.604,0.225c0.508,0.146,0.957,0.37,1.342,0.666c0.386,0.296,0.691,0.664,0.913,1.104
			c0.222,0.44,0.333,0.95,0.333,1.532l-1.08-0.001c-0.021-0.431-0.115-0.81-0.286-1.134c-0.168-0.323-0.396-0.594-0.682-0.812
			c-0.286-0.215-0.612-0.38-0.976-0.49c-0.365-0.111-0.75-0.167-1.152-0.168c-0.37,0.001-0.728,0.038-1.072,0.113
			c-0.344,0.074-0.646,0.199-0.905,0.365c-0.258,0.165-0.467,0.385-0.626,0.659c-0.16,0.273-0.239,0.614-0.238,1.018
			c-0.001,0.254,0.043,0.474,0.134,0.66c0.09,0.188,0.215,0.345,0.374,0.472c0.159,0.127,0.342,0.233,0.546,0.319
			c0.207,0.085,0.427,0.153,0.659,0.206l2.764,0.65c0.401,0.102,0.779,0.227,1.134,0.375c0.354,0.146,0.667,0.327,0.938,0.546
			c0.27,0.219,0.48,0.485,0.633,0.797c0.153,0.313,0.231,0.693,0.23,1.14c0,0.122-0.013,0.281-0.038,0.484
			c-0.027,0.203-0.091,0.418-0.191,0.646c-0.102,0.229-0.244,0.46-0.428,0.69c-0.187,0.234-0.44,0.445-0.764,0.639
			c-0.324,0.193-0.721,0.346-1.197,0.463c-0.478,0.117-1.049,0.174-1.715,0.174c-0.668,0.001-1.288-0.075-1.858-0.229
			c-0.574-0.153-1.061-0.394-1.462-0.714c-0.402-0.325-0.713-0.736-0.929-1.241c-0.216-0.501-0.309-1.097-0.278-1.785L79.278,76.02z
			"/>
		<path fill="#1A171B" d="M93.27,72.181c0.224-0.686,0.556-1.29,1.002-1.814c0.443-0.521,1.001-0.939,1.676-1.247
			c0.67-0.313,1.452-0.467,2.34-0.467c0.889,0,1.666,0.154,2.335,0.467c0.666,0.308,1.221,0.727,1.667,1.247
			c0.444,0.524,0.778,1.13,1,1.815c0.222,0.683,0.333,1.397,0.334,2.14s-0.113,1.456-0.334,2.145
			c-0.224,0.684-0.556,1.286-1.002,1.81c-0.443,0.524-1,0.941-1.667,1.251c-0.666,0.309-1.442,0.465-2.333,0.464
			c-0.889,0.001-1.669-0.154-2.343-0.464c-0.672-0.31-1.229-0.727-1.675-1.251c-0.445-0.522-0.779-1.127-1-1.813
			c-0.223-0.686-0.333-1.401-0.333-2.142C92.936,73.58,93.048,72.864,93.27,72.181z M94.261,76.06
			c0.164,0.565,0.417,1.07,0.763,1.521c0.343,0.446,0.785,0.809,1.326,1.079c0.54,0.274,1.186,0.41,1.937,0.411
			c0.741-0.001,1.381-0.136,1.922-0.41c0.538-0.271,0.981-0.633,1.326-1.081c0.343-0.448,0.598-0.954,0.761-1.521
			c0.166-0.563,0.247-1.145,0.247-1.737c0.001-0.585-0.081-1.163-0.245-1.733c-0.165-0.566-0.418-1.076-0.763-1.525
			c-0.344-0.449-0.786-0.808-1.326-1.082c-0.539-0.271-1.179-0.408-1.92-0.407c-0.751-0.001-1.399,0.136-1.94,0.407
			c-0.537,0.273-0.979,0.632-1.324,1.082c-0.343,0.449-0.599,0.957-0.762,1.524c-0.166,0.57-0.246,1.147-0.247,1.732
			C94.014,74.916,94.097,75.496,94.261,76.06z"/>
		<path fill="#1A171B" d="M110.07,68.654l7.193,0.001l0.001,0.923l-6.113-0.001l-0.002,4.098l5.43-0.001l0.001,0.92h-5.43v5.399
			l-1.081-0.001L110.07,68.654z"/>
		<path fill="#1A171B" d="M122.138,68.656l8.987,0.001l0.001,0.922l-3.955-0.002v10.416l-1.08,0.001l0.001-10.416h-3.954V68.656z"/>
		<path fill="#1A171B" d="M135.81,68.657h1.159l2.572,9.925l0.032,0.001l2.762-9.925h1.351l2.779,9.925h0.032l2.587-9.924
			l1.08-0.001l-3.128,11.338l-1.144,0.001l-2.874-10.147h-0.032l-2.857,10.146l-1.176-0.001L135.81,68.657z"/>
		<path fill="#1A171B" d="M159.154,68.659l1.206,0.001l4.446,11.338l-1.159-0.001l-1.381-3.525l-5.161-0.001l-1.366,3.526
			l-1.158-0.001L159.154,68.659z M157.438,75.551l4.462,0.001l-2.19-5.813L157.438,75.551z"/>
		<path fill="#1A171B" d="M170.602,68.661l5.192,0.001c0.466-0.002,0.907,0.059,1.327,0.176c0.419,0.115,0.784,0.293,1.095,0.529
			c0.313,0.239,0.562,0.547,0.747,0.922c0.185,0.376,0.277,0.819,0.278,1.325c-0.002,0.721-0.187,1.346-0.559,1.874
			c-0.369,0.53-0.919,0.868-1.649,1.018v0.032c0.369,0.051,0.677,0.148,0.921,0.294c0.244,0.143,0.442,0.325,0.597,0.547
			c0.152,0.221,0.263,0.479,0.332,0.771c0.068,0.289,0.114,0.605,0.134,0.944c0.012,0.189,0.022,0.424,0.033,0.698
			c0.009,0.276,0.032,0.554,0.063,0.833c0.031,0.282,0.081,0.545,0.149,0.794c0.069,0.251,0.162,0.443,0.279,0.579l-1.191-0.001
			c-0.063-0.104-0.113-0.234-0.15-0.387c-0.038-0.153-0.067-0.314-0.088-0.478c-0.021-0.163-0.034-0.323-0.04-0.484
			c-0.004-0.159-0.013-0.296-0.024-0.41c-0.02-0.394-0.054-0.789-0.104-1.191c-0.045-0.403-0.146-0.76-0.301-1.074
			c-0.153-0.313-0.375-0.563-0.666-0.754c-0.291-0.188-0.69-0.275-1.199-0.254h-4.095l-0.002,5.032h-1.08V68.661z M171.683,74.042
			l4.032,0.002c0.328-0.001,0.641-0.052,0.938-0.151c0.297-0.101,0.556-0.246,0.776-0.436c0.224-0.191,0.401-0.422,0.535-0.691
			c0.13-0.269,0.195-0.58,0.197-0.928c-0.001-0.699-0.204-1.249-0.61-1.652c-0.408-0.402-1.021-0.604-1.836-0.604l-4.032-0.001
			V74.042z"/>
		<path fill="#1A171B" d="M185.958,68.663l7.828-0.001l-0.001,0.922h-6.749l0.001,4.097l6.321,0.001l-0.001,0.921l-6.321-0.003v4.48
			l6.828,0.002L193.866,80h-7.908L185.958,68.663z"/>
	</g>
	<g>
		<path fill="#1A171B" d="M185.533,8.016c-2.15,0-3.899-1.75-3.899-3.9c0-2.15,1.749-3.9,3.899-3.9s3.9,1.75,3.9,3.9
			C189.433,6.267,187.683,8.016,185.533,8.016z M185.533,0.9c-1.772,0-3.215,1.443-3.215,3.215c0,1.773,1.442,3.216,3.215,3.216
			s3.216-1.443,3.216-3.216C188.749,2.343,187.305,0.9,185.533,0.9z"/>
		<path fill="#1A171B" d="M183.904,1.677h1.83c0.296,0,0.516,0.013,0.654,0.038c0.141,0.026,0.265,0.067,0.376,0.128
			c0.198,0.108,0.35,0.26,0.454,0.455c0.103,0.194,0.154,0.422,0.154,0.686c0,0.253-0.054,0.471-0.162,0.651
			c-0.109,0.18-0.271,0.321-0.486,0.424c0.183,0.051,0.313,0.137,0.392,0.259s0.126,0.328,0.146,0.618l0.055,0.777
			c0.012,0.167,0.032,0.292,0.065,0.374c0.033,0.082,0.082,0.14,0.149,0.174v0.131h-0.74c-0.06-0.099-0.102-0.308-0.125-0.63v-0.02
			l-0.04-0.615c-0.021-0.315-0.089-0.52-0.201-0.614c-0.113-0.095-0.396-0.142-0.849-0.142h-1.035v2.021h-0.637V1.677z
			 M184.535,2.227v1.601h1.093c0.396,0,0.675-0.064,0.839-0.193c0.163-0.127,0.244-0.342,0.244-0.642
			c0-0.28-0.077-0.478-0.231-0.593c-0.152-0.115-0.438-0.173-0.852-0.173H184.535z"/>
	</g>
</g>
</svg>
