<svg id="Livello_1" data-name="Livello 1" xmlns="http://www.w3.org/2000/svg" width="500" height="500" viewBox="0 0 500 500">
  <g>
    <path d="M104.09,468.87a195.86,195.86,0,0,1,146.16-65.24c59.16,0,111.69,25.47,147.7,66.84l102.05,0L251.85,29.35,0,470.47l102.25.18C102.85,470,103.48,469.47,104.09,468.87Z" style="fill: #ffdc00"/>
    <path d="M500,470.5,251.85,29.35,0,470.47l102.25.18,0,0ZM43,445.58,251.69,80,457.77,446.32l-48.37-.08a221.25,221.25,0,0,0-317.79-.58Zm62.85,21.47a196.11,196.11,0,0,1,288.81,0Z" style="fill: #1a171b"/>
  </g>
</svg>
