<?xml version="1.0" encoding="UTF-8" standalone="no"?>
<!-- Created with Inkscape (http://www.inkscape.org/) -->

<svg
   version="1.1"
   id="svg9"
   width="24"
   height="24"
   viewBox="0 0 24 24"
   sodipodi:docname="logo_scai_tecno.svg"
   inkscape:version="1.2.2 (732a01da63, 2022-12-09)"
   xmlns:inkscape="http://www.inkscape.org/namespaces/inkscape"
   xmlns:sodipodi="http://sodipodi.sourceforge.net/DTD/sodipodi-0.dtd"
   xmlns="http://www.w3.org/2000/svg"
   xmlns:svg="http://www.w3.org/2000/svg">
  <defs
     id="defs13" />
  <sodipodi:namedview
     id="namedview11"
     pagecolor="#ffffff"
     bordercolor="#000000"
     borderopacity="0.25"
     inkscape:showpageshadow="2"
     inkscape:pageopacity="0.0"
     inkscape:pagecheckerboard="0"
     inkscape:deskcolor="#d1d1d1"
     showgrid="false"
     showguides="false"
     inkscape:zoom="11.313709"
     inkscape:cx="22.406446"
     inkscape:cy="15.688932"
     inkscape:window-width="1920"
     inkscape:window-height="1018"
     inkscape:window-x="-6"
     inkscape:window-y="-6"
     inkscape:window-maximized="1"
     inkscape:current-layer="g15" />
  <g
     inkscape:groupmode="layer"
     inkscape:label="Image"
     id="g15">
    <g
       id="g779"
       transform="scale(1.1740567)">
      <path
         style="fill:#17304c;stroke:none;stroke-width:0.0813061"
         d="m 4.005151,3.8672383 h 4.146611 1.87004 C 9.672592,4.4703588 8.98458,4.8372444 8.585367,5.4120542 8.323236,5.7895909 8.270712,6.345066 8.314374,6.7942578 8.391124,7.5833335 9.095075,8.1441019 9.615271,8.6642983 l 2.195265,2.1952647 c 0.785498,0.785498 1.730519,1.626366 2.92702,1.11121 1.149912,-0.495154 1.480909,-1.9804535 0.785986,-2.9812503 C 15.168641,8.4785952 14.607873,8.0467783 14.168413,7.6073188 l -0.813061,-0.813061 c -0.08643,-0.087664 -0.27701,-0.2151766 -0.243918,-0.3523237 0.07683,-0.3184597 0.664352,-0.7185752 0.894367,-0.9485739 l 1.707428,-1.707428 c 0.454013,-0.4540539 0.910222,-0.8715526 0.975673,-1.5448159 0.09911,-1.0191557 -0.538246,-2.08949361 -1.626122,-2.19526472 -1.061126,-0.10316605 -2.185345,0 -3.252244,0 H 5.143437 2.704254 c -0.608275,0 -1.157718,-0.04028717 -1.707428,0.25747203 C -0.022959,0.855701 0.021153,1.969806 0.021153,2.9728712 V 9.6399715 13.21744 c 0,0.604267 -0.09221,1.292279 0.108405,1.87004 0.223193,0.642806 0.775075,1.117634 1.436411,1.273823 1.199606,0.283189 2.321402,-0.550199 2.439182,-1.761659 0.110902,-1.140725 0,-2.349259 0,-3.496163 z"
         id="path127" />
      <path
         style="fill:#fdc42d;fill-opacity:1;stroke-width:0.038234"
         d="m 18.820511,4.0929845 c 0.396533,0.072527 0.750272,0.2603251 1.04659,0.555628 0.276277,0.2753301 0.424211,0.5221771 0.517271,0.8631277 0.05592,0.2048621 0.06127,0.8375769 0.05598,6.6116208 -0.0064,6.9967 0.0019,6.737992 -0.231625,7.228874 -0.279275,0.587116 -0.781131,0.917256 -1.531078,1.007203 -0.469874,0.05635 -13.1001603,0.06295 -13.3785523,0.007 -0.704477,-0.141634 -1.271134,-0.74002 -1.433611,-1.513895 -0.13116,-0.624711 -0.01693,-1.079594 0.403243,-1.605828 0.21294,-0.266689 2.374257,-2.418768 2.652171,-2.640836 0.253763,-0.202768 0.480869,-0.495939 0.481871,-0.622047 6.5e-4,-0.08318 -0.217513,-0.317628 -1.197638,-1.286964 -0.980005,-0.969217 -1.219962,-1.227067 -1.31649,-1.414658 -0.171363,-0.333023 -0.242088,-0.617157 -0.245139,-0.984824 -0.0065,-0.7802194 0.379889,-1.4177614 1.064897,-1.7571964 0.296578,-0.14696 0.354167,-0.161849 0.681364,-0.176159 0.606595,-0.02653 1.033828,0.154274 1.714791,0.725698 0.508404,0.426624 3.6183053,3.5693104 3.7669613,3.8066744 0.283,0.451874 0.370588,0.964669 0.256374,1.500975 -0.106722,0.501132 -0.199755,0.638489 -0.891858,1.316785 -0.551226,0.540228 -0.77535,0.793889 -0.77535,0.877528 0,0.01329 1.361211,0.02416 3.024914,0.02416 h 3.024915 l -0.01257,-5.362319 c -0.01008,-4.2997333 -0.0027,-5.4077761 0.03723,-5.5917211 0.233604,-1.0759927 1.232138,-1.7614617 2.285339,-1.5688296 z"
         id="path741" />
    </g>
    <path
       style="fill:#fdc42d;fill-opacity:1;stroke-width:0.0103911"
       d=""
       id="path763" />
    <path
       style="fill:#fdc42d;fill-opacity:1;stroke-width:0.0103911"
       d=""
       id="path765" />
    <path
       style="fill:#fdc42d;fill-opacity:1;stroke-width:0.0103911"
       d=""
       id="path767" />
    <path
       style="fill:#fdc42d;fill-opacity:1;stroke-width:0.00390625"
       d=""
       id="path769" />
  </g>
</svg>
